<svg viewBox="0 0 48 48" xmlns="http://www.w3.org/2000/svg">
  <!-- Google "G" logo colors -->
  <path d="M43.6 24.5c0-1.5-.1-3-.4-4.5H24v8.5h11C34.5 32 32.5 34 29.8 35.4v5h6.9c4-3.7 6.3-9.2 6.3-15.9z"
        fill="#4285F4"/>
  <path d="M24 44c5.6 0 10.3-1.9 13.7-5l-6.9-5c-1.9 1.3-4.3 2-6.8 2-5.2 0-9.7-3.5-11.3-8.3H5.5v5.2C8.9 39.7 16 44 24 44z"
        fill="#34A853"/>
  <path d="M12.7 27.7c-.4-1.2-.6-2.4-.6-3.7s.2-2.5.6-3.7v-5.2H5.5C4 18.5 3 21.1 3 24s1 5.5 2.5 7.9l7.2-4.2z"
        fill="#FBBC05"/>
  <path d="M24 10c2.9 0 5.5 1 7.6 3l5.7-5.7C34.3 4 29.6 2 24 2 16 2 8.9 6.3 5.5 13l7.2 5.2C14.3 13.5 18.8 10 24 10z"
        fill="#EA4335"/>
</svg>
